<?xml version="1.0" standalone="no"?>
<!DOCTYPE svg PUBLIC "-//W3C//DTD SVG 1.1//EN" "http://www.w3.org/Graphics/SVG/1.1/DTD/svg11.dtd" >
<svg xmlns="http://www.w3.org/2000/svg">
<metadata>
Created by FontForge 20120731 at Fri Jan  8 10:42:01 2016
 By Ads
</metadata>
<defs>
<font id="iconfont" horiz-adv-x="1024" >
  <font-face 
    font-family="iconfont"
    font-weight="500"
    font-stretch="normal"
    units-per-em="1024"
    panose-1="2 0 6 3 0 0 0 0 0 0"
    ascent="896"
    descent="-128"
    x-height="792"
    bbox="0 -148 1023.92 896"
    underline-thickness="50"
    underline-position="-100"
    unicode-range="U+0078-E67A"
  />
<missing-glyph horiz-adv-x="374" 
d="M34 0v682h272v-682h-272zM68 34h204v614h-204v-614z" />
    <glyph glyph-name=".notdef" horiz-adv-x="374" 
d="M34 0v682h272v-682h-272zM68 34h204v614h-204v-614z" />
    <glyph glyph-name=".null" horiz-adv-x="0" 
 />
    <glyph glyph-name="nonmarkingreturn" horiz-adv-x="341" 
 />
    <glyph glyph-name="x" unicode="x" horiz-adv-x="1001" 
d="M281 543q-27 -1 -53 -1h-83q-18 0 -36.5 -6t-32.5 -18.5t-23 -32t-9 -45.5v-76h912v41q0 16 -0.5 30t-0.5 18q0 13 -5 29t-17 29.5t-31.5 22.5t-49.5 9h-133v-97h-438v97zM955 310v-52q0 -23 0.5 -52t0.5 -58t-10.5 -47.5t-26 -30t-33 -16t-31.5 -4.5q-14 -1 -29.5 -0.5
t-29.5 0.5h-32l-45 128h-439l-44 -128h-29h-34q-20 0 -45 1q-25 0 -41 9.5t-25.5 23t-13.5 29.5t-4 30v167h911zM163 247q-12 0 -21 -8.5t-9 -21.5t9 -21.5t21 -8.5q13 0 22 8.5t9 21.5t-9 21.5t-22 8.5zM316 123q-8 -26 -14 -48q-5 -19 -10.5 -37t-7.5 -25t-3 -15t1 -14.5
t9.5 -10.5t21.5 -4h37h67h81h80h64h36q23 0 34 12t2 38q-5 13 -9.5 30.5t-9.5 34.5q-5 19 -11 39h-368zM336 498v228q0 11 2.5 23t10 21.5t20.5 15.5t34 6h188q31 0 51.5 -14.5t20.5 -52.5v-227h-327z" />
    <glyph glyph-name="uniE600" unicode="&#xe600;" 
d="M512 832q-52 0 -102.5 -12t-94.5 -34t-83 -52.5t-69.5 -69.5t-52.5 -83t-34 -94.5t-12 -102.5q0 -91 35.5 -174t95.5 -143t143 -95.5t174 -35.5t174 35.5t143 95.5t95.5 143t35.5 174t-35.5 174t-95.5 143t-143 95.5t-174 35.5zM512 -28q-112 0 -207 55t-150 150t-55 207
t55 207t150 150t207 55t207 -55t150 -150t55 -207t-55 -207t-150 -150t-207 -55zM406 210v-61q0 -11 -6 -22t-15.5 -18t-20.5 -9l-112 -34q46 -40 114 -67t146 -27q147 0 269 98l-120 29q-18 3 -30 17.5t-12 32.5v61q11 13 19.5 34.5t11.5 36.5t9 48q9 -2 13.5 8.5
t11.5 40.5q2 9 5.5 20.5t6.5 19.5t5 16t0 12.5t-8 5.5q-2 1 -4 1t-4 -1l8 116q3 37 -11 71.5t-37 43.5q-15 7 -31.5 14.5t-25 11.5t-19 7.5t-22.5 5.5q-14 2 -23.5 2.5t-23.5 -2.5t-23.5 -5.5t-24.5 -7.5q-9 -3 -19 -8t-19 -11t-17 -11.5t-16.5 -11.5t-15.5 -10
q-38 -24 -34 -89l8 -116q-2 1 -4 1t-4 -1q-3 0 -5 -2t-2.5 -5t-0.5 -6.5t1 -8.5l4 -8q1 -5 3 -10.5t3.5 -10.5t3.5 -11.5t3 -11.5q6 -30 10.5 -41t12.5 -9q1 -3 4 -19t4.5 -20.5t4.5 -17t5.5 -18.5t6 -15t8 -15.5t9.5 -12.5z" />
    <glyph glyph-name="uniE604" unicode="&#xe604;" 
d="M513 831q-111 0 -203 -51.5t-146 -144t-54 -206.5q0 -43 11.5 -83t26.5 -69t41.5 -61.5t46 -51t51.5 -49t47 -44.5q26 -26 50.5 -57.5t35 -44.5t32 -22.5t55.5 -9.5q28 0 46.5 4.5t34.5 17.5t27 25.5t33 38.5t44 48q14 14 46.5 44.5t52 49t46 51t41.5 61.5t26 69t11 83
q0 114 -53.5 206.5t-145.5 144t-203 51.5zM468 160l45 224h-179l224 313l-45 -224h179z" />
    <glyph glyph-name="uniE605" unicode="&#xe605;" 
d="M243 445q51 -103 136 -187t192 -141l109 109q12 12 25 14.5t25 -4.5q82 -30 179 -30q7 0 13.5 -1.5t12 -4.5t10 -7.5t7.5 -10t4.5 -12t1.5 -13.5v-169q0 -8 -1.5 -14.5t-4.5 -12t-7.5 -10t-10 -7.5t-12 -4.5t-13.5 -1.5q-115 0 -224.5 30.5t-202.5 85t-171 132
t-132 170.5t-84.5 202.5t-30.5 224.5q0 22 13.5 35.5t36.5 13.5h174q22 0 35.5 -13.5t13.5 -35.5q0 -90 30 -179q4 -12 1 -25t-11 -25z" />
    <glyph glyph-name="uniE607" unicode="&#xe607;" 
d="M511 832q-52 0 -102 -11.5t-94 -33.5t-83 -53t-69.5 -69.5t-53 -82.5t-34 -94.5t-11.5 -102.5q0 -90 35.5 -173t95.5 -143t142.5 -95.5t173.5 -35.5t173.5 35.5t142.5 95.5t95.5 143t35.5 173.5t-35.5 173t-95.5 142.5t-142.5 95.5t-173.5 35.5zM735 224l-63 -62
l-161 161l-161 -161l-63 62l161 161l-161 161l63 63l161 -161l161 161l63 -63l-161 -161z" />
    <glyph glyph-name="uniE60A" unicode="&#xe60a;" 
d="M511 832q-52 0 -102 -11.5t-94 -33.5t-83 -53t-69.5 -69.5t-53 -82.5t-34 -94.5t-11.5 -102.5q0 -90 35.5 -173t95.5 -143t142.5 -95.5t173.5 -35.5q73 0 141 22.5t123 64t96.5 96.5t64 123.5t22.5 140.5q0 91 -35.5 173.5t-95.5 142.5t-142.5 95.5t-173.5 35.5zM422 162
l-224 223l63 63l161 -161l339 340l63 -63z" />
    <glyph glyph-name="uniE60D" unicode="&#xe60d;" 
d="M511 811q-74 0 -126.5 -52.5t-52.5 -126.5q0 -48 24 -89.5t65.5 -65.5t89.5 -24t89.5 24t65.5 65.5t24 89.5q0 74 -52.5 126.5t-126.5 52.5zM511 543q-37 0 -63 26t-26 63t26 63t63 26q24 0 44.5 -12t32.5 -32.5t12 -44.5q0 -37 -26 -63t-63 -26zM243 319q-49 0 -90 -24
t-65 -65.5t-24 -89.5q0 -74 52.5 -126.5t126 -52.5t126.5 52.5t53 126.5q0 84 -66 138q-50 41 -113 41zM243 51q-11 0 -21 2t-18.5 6.5t-16.5 10.5t-14 14t-10.5 17t-7 19t-2.5 20q0 15 4.5 28.5t13 24.5t19.5 19t24.5 13t28.5 5q37 0 63 -26.5t26 -63.5t-26 -63t-63 -26z
M511 404q-22 0 -41.5 -12t-31.5 -31.5t-12 -41.5q0 -16 7 -32t18.5 -27.5t27.5 -18.5t32 -7q13 0 26 4.5t23.5 12.5t18.5 18.5t12.5 23.5t4.5 26q0 7 -1.5 14.5t-4 14t-6.5 13t-9 12t-10.5 10.5t-12 9t-13 6.5t-14 4t-14.5 1.5zM779 319q-48 0 -89.5 -24t-65.5 -65.5
t-24 -89.5q0 -74 52.5 -126.5t126.5 -52.5t126.5 52.5t52.5 126.5t-52.5 126.5t-126.5 52.5zM779 51q-18 0 -34.5 7t-28.5 19t-19 28.5t-7 34.5q0 37 26 63.5t63 26.5t63.5 -26.5t26.5 -63.5t-26.5 -63t-63.5 -26z" />
    <glyph glyph-name="uniE610" unicode="&#xe610;" 
d="M65 733v-199h99v199h199v99h-199q-8 0 -16 -1t-15 -3.5t-14 -6.5t-13.5 -8.5t-11.5 -9.5t-9.5 -11.5t-8.5 -13.5t-6.5 -14t-3.5 -15t-1 -16zM164 236h-99v-199q0 -41 29 -70t70 -29h199v99h-199v199zM661 37v-99h199q41 0 70 29t29 70v199h-99v-199h-199zM860 832h-199
v-99h199v-199h99v199q0 41 -29 70t-70 29zM313 410q0 6 3.5 12t9.5 9.5t12 3.5h348q10 0 17.5 -7.5t7.5 -17.5v-50q0 -10 -7.5 -17.5t-17.5 -7.5h-348q-10 0 -17.5 7.5t-7.5 17.5v50z" />
    <glyph glyph-name="uniE611" unicode="&#xe611;" 
d="M736 832h-260h-232q-42 0 -66 -34t-24 -100v-760l358 179l358 -179v760q0 62 -43.5 98t-90.5 36zM467 206l45 224h-179l224 313l-45 -224h179z" />
    <glyph glyph-name="uniE616" unicode="&#xe616;" 
d="M735 340h-224v-223h224v223zM824 743h-45v89h-89v-89h-358v89h-89v-89h-45q-37 0 -63 -26.5t-26 -63.5v-626q0 -37 26 -63t63 -26h626q37 0 63.5 26t26.5 63v626q0 18 -7.5 35t-19.5 29t-28.5 19t-34.5 7zM824 27h-626v492h626v-492z" />
    <glyph glyph-name="uniE619" unicode="&#xe619;" 
d="M1019 506q-2 2 -5 4.5t-6 4t-6 2.5t-7 1h-720l-47 160q-5 18 -14.5 31.5t-19.5 20.5t-21.5 11t-19.5 5.5t-15 1.5h-109q-12 0 -20.5 -8.5t-8.5 -20.5t8.5 -20.5t20.5 -8.5h109q16 0 24 -28l162 -587q5 -21 27 -21h505q10 0 17.5 5.5t10.5 14.5l138 405q5 15 -3 27z
M826 122h-443l-92 328h653zM778.5 -4q-30.5 0 -51.5 -21t-21 -51t21 -51t51.5 -21t51.5 21t21 51t-21 51t-51.5 21zM405 -4q-30 0 -51.5 -21t-21.5 -51q0 -19 9.5 -36t26.5 -26.5t37 -9.5t36.5 9.5t26.5 26.5t10 36q0 30 -21.5 51t-51.5 21z" />
    <glyph glyph-name="uniE620" unicode="&#xe620;" 
d="M958 576l-447 -447l-447 447l65 65l382 -382l382 382z" />
    <glyph glyph-name="uniE621" unicode="&#xe621;" 
d="M701 -63l-446 447l446 447l65 -65l-381 -382l381 -382z" />
    <glyph glyph-name="uniE622" unicode="&#xe622;" 
d="M319 -62l447 447l-447 447l-65 -65l382 -382l-382 -382z" />
    <glyph glyph-name="uniE623" unicode="&#xe623;" 
d="M958 194l-447 447l-447 -447l65 -65l382 382l382 -382z" />
    <glyph glyph-name="uniE625" unicode="&#xe625;" 
d="M869 831h-716q-24 0 -44.5 -12t-32.5 -32.5t-12 -44.5v-805l179 179h626q37 0 63 26t26 63v537q0 12 -3 23.5t-9 21.5t-14 18t-18 14t-21.5 9t-23.5 3zM779 295h-536v89h536v-89zM779 429h-536v89h536v-89zM779 563h-536v89h536v-89z" />
    <glyph glyph-name="uniE626" unicode="&#xe626;" 
d="M531 773q-117 0 -215 -45.5t-155 -127.5t-57 -183q0 -90 45 -168t124 -130q13 -12 -209 -122l233 48q76 15 85 12q44 -14 149 -14q116 0 214.5 50t155.5 136t57 188q0 101 -57.5 183t-155 127.5t-214.5 45.5zM322.5 335q-24.5 0 -42 17.5t-17.5 42.5t17.5 42.5t42 17.5
t42 -17.5t17.5 -42.5t-17.5 -42.5t-42 -17.5zM522 335q-13 0 -24 5t-19 13t-12.5 19t-4.5 23q0 25 17.5 42.5t42 17.5t42 -17.5t17.5 -42.5q0 -16 -8 -30t-21.5 -22t-29.5 -8zM721 335q-7 0 -12.5 1.5t-11 3.5t-10.5 5.5t-9 7.5t-7 8.5t-5.5 10t-3.5 11.5t-1 12q0 12 4.5 23
t12.5 19t19 13t24 5q37 0 53 -34q6 -12 6 -26q0 -16 -8 -30t-21.5 -22t-29.5 -8z" />
    <glyph glyph-name="uniE628" unicode="&#xe628;" 
d="M756 833h-492q-28 0 -47.5 -19.5t-19.5 -47.5v-760q0 -28 19.5 -47.5t47.5 -19.5h492q28 0 47.5 19.5t19.5 47.5v760q0 14 -5 26.5t-14 21.5t-21.5 14t-26.5 5zM509 -5q-8 0 -15 2t-13 5.5t-11.5 8.5t-9 11.5t-5.5 13.5t-2 15q0 23 16.5 39.5t39.5 16.5t39.5 -16.5
t16.5 -39.5q0 -16 -7.5 -28.5t-20.5 -20t-28 -7.5zM734 185q0 -9 -7 -16t-16 -7h-402q-9 0 -15.5 6.5t-6.5 16.5v537q0 4 1.5 8t4.5 7t7.5 5t8.5 2h402q6 0 11.5 -3t8.5 -8t3 -11v-537z" />
    <glyph glyph-name="uniE62E" unicode="&#xe62e;" 
d="M703 270h-41l-16 15q82 90 82 215q0 45 -12 88.5t-33 79.5t-52 67t-67 52t-79.5 33t-88.5 12q-136 0 -233 -95q-97 -101 -99 -237q0 -91 44 -167t120.5 -120.5t167.5 -44.5q125 0 215 82l15 -16v-41l256 -255l76 76zM396 270q-96 0 -163 67t-67 163q0 47 18 89.5t49 73.5
t73.5 49t89.5 18t89.5 -18t73.5 -49t49 -73.5t18 -89.5q0 -104 -77 -172q-66 -58 -153 -58z" />
    <glyph glyph-name="uniE631" unicode="&#xe631;" 
d="M951 266l-105 72q0 6 2 20.5t2 24.5q0 31 -4 44l95 77q7 6 8 13t-3 14l-91 157q-10 10 -28 5l-114 -45q-8 6 -17 12t-20.5 12t-19 10t-20.5 11l-18 117q2 6 -1 11.5t-8 8t-10 2.5h-182q-5 0 -10 -2.5t-9 -7t-4 -8.5l-18 -121q-10 -4 -21 -9.5t-17.5 -9.5t-20.5 -13.5
t-19 -12.5l-109 45q-17 5 -32 -9l-91 -158q-3 -2 -2.5 -6.5t3.5 -10t8 -10.5l96 -72q0 -6 -2.5 -20.5t-2.5 -23.5v-17q0 -6 1 -14t4 -14l-96 -77q-12 -12 -5 -27l91 -157q5 -4 11 -5.5t17 0.5l114 45q23 -18 77 -45l19 -116q0 -7 6.5 -12.5t15.5 -5.5h183q4 0 9.5 2.5
t9.5 6.5t4 9l18 116q55 27 78 45l114 -45q3 -1 7 -1t8 1t7 3.5t5 5.5l91 158q4 6 3 15t-7 12zM508 225q-32 0 -61.5 13t-51 34t-34.5 50t-13 60.5t13 60.5t34.5 50t51 34t61.5 13q65 0 112.5 -46.5t47.5 -111t-47.5 -111t-112.5 -46.5z" />
    <glyph glyph-name="uniE635" unicode="&#xe635;" 
d="M867 90q43 33 67 79.5t24 98.5q0 100 -80.5 170t-194 70t-194 -70t-80.5 -170q0 -65 37 -120.5t100 -87.5t138 -32q64 0 122 25l72 -41q3 -5 9 -5q10 0 10 11q0 3 -2 5l2 4zM592 314q-17 0 -29 12t-12 29q0 8 3.5 16t9 13.5t13 8.5t15.5 3t15.5 -3t13 -8.5t9 -13.5
t3.5 -16t-3.5 -15.5t-9 -13t-13 -9t-15.5 -3.5zM785 314q-17 0 -28.5 12t-11.5 29q0 8 3 16t8.5 13.5t13 8.5t15.5 3q17 0 29 -12t12 -29t-12 -29t-29 -12zM384 764q-52 0 -101 -14t-88.5 -40t-69 -60.5t-45.5 -77.5t-16 -89q0 -67 33.5 -125.5t92.5 -98.5l-31 -80
q-4 -3 -4 -8q0 -10 10 -10q2 0 3.5 0.5t2.5 1.5l2 2l89 58q58 -21 122 -21h8h6q-4 16 -6.5 32.5t-2.5 33.5q0 108 86 184.5t209 76.5h4h4h4h4q-19 100 -108.5 167.5t-207.5 67.5zM267 529q-17 0 -29 12t-12 29t12 29t29 12t29 -12t12 -29t-12 -29t-29 -12zM511 529
q-11 0 -20.5 5.5t-15 15t-5.5 20.5q0 17 12 29t29 12q11 0 20.5 -5.5t14.5 -15t5 -20.5q0 -28 -25 -38z" />
    <glyph glyph-name="uniE636" unicode="&#xe636;" 
d="M664 259q-33 0 -55.5 23t-22.5 55v104q0 33 22.5 55.5t55.5 22.5h246v164q0 10 -4 18.5t-10 15t-15 10.5t-19 4h-732q-20 0 -34 -14t-14 -34v-565q0 -20 14 -34t34 -14h732q13 0 24 6.5t17.5 17.5t6.5 24v141h-246zM904 505h-231q-29 0 -49 -20.5t-20 -48.5v-92
q0 -28 20 -48.5t49 -20.5h231q29 0 49 20.5t20 48.5v92q0 14 -5.5 26.5t-14.5 22t-22 15t-27 5.5zM689 356q-7 0 -13 3t-10.5 7.5t-7 10.5t-2.5 13q0 14 9.5 23.5t23.5 9.5q9 0 17 -4t12.5 -12t4.5 -17t-4.5 -17t-12.5 -12.5t-17 -4.5z" />
    <glyph glyph-name="uniE637" unicode="&#xe637;" 
d="M512 -61q-90 0 -173 35q-80 34 -141 96q-31 30 -55 65.5t-41 75.5q-34 82 -34 172.5t34 173.5q17 40 41 75t55 66q61 62 141 95q41 18 84.5 26.5t88.5 8.5t88.5 -8.5t84.5 -26.5q40 -16 75.5 -40t65.5 -55q21 -20 38.5 -42.5t31.5 -47.5t26 -51q17 -41 25.5 -84.5
t8.5 -88.5q0 -91 -34 -173q-34 -80 -96 -141q-30 -31 -65.5 -55t-75.5 -41q-83 -35 -173 -35zM512 787q-82 0 -156.5 -32t-129 -86t-86.5 -128.5t-32 -156.5q0 -110 54.5 -203t147.5 -147t202 -54t202 54t147.5 147t54.5 203q0 82 -32 156.5t-86.5 128.5t-129 86t-156.5 32z
M442 175l-174 179l37 36l174 -179zM405 212l340 331l37 -37l-340 -331z" />
    <glyph glyph-name="uniE638" unicode="&#xe638;" 
d="M512 833q-73 0 -141.5 -23t-123.5 -64.5t-96.5 -96.5t-64.5 -123.5t-23 -141.5q0 -91 35.5 -174t96 -143.5t143.5 -96t174 -35.5t174 35.5t143.5 96t96 143.5t35.5 174q0 61 -16.5 119t-45.5 107.5t-70 90.5t-90.5 70t-107.5 45.5t-119 16.5zM512 174l-287 286l42 42
l245 -244l245 244l42 -42z" />
    <glyph glyph-name="uniE639" unicode="&#xe639;" 
d="M527 -44q-91 0 -174 35q-80 34 -141.5 95.5t-95.5 141.5q-18 42 -26.5 85.5t-8.5 88.5q0 91 35 174q34 80 95.5 141.5t141.5 95.5q83 35 174 35q30 0 59.5 -4t58 -11.5t55.5 -19.5q80 -34 142 -95.5t95 -141.5q36 -83 36 -174q0 -13 -1 -25.5t-2.5 -25.5t-3.5 -25.5
t-5 -24.5t-6.5 -24.5t-8 -24.5t-9.5 -24q-33 -80 -95 -141.5t-142 -95.5q-41 -17 -84.5 -26t-88.5 -9zM527 807q-83 0 -158 -32t-129 -86.5t-86 -129.5t-32 -157t32 -157t86 -129.5t129 -86.5t158 -32q109 0 202.5 54.5t148 147.5t54.5 203t-54.5 203t-148 147.5
t-202.5 54.5zM478 699h98v-448h-98v448zM478 203h98v-98h-98v98z" />
    <glyph glyph-name="uniE63A" unicode="&#xe63a;" 
d="M530 -50h-40v500h364l-341 340l-382 -382l-29 29l411 411l405 -405l35 -34h-51h-372v-327q10 21 21 41q39 74 92 116q33 27 71 41t79 14q71 0 138 -1h1t1.5 -4t0 -10t-0.5 -12t-1 -11v-4l-139 1q-63 0 -114.5 -37.5t-91.5 -111.5q-42 -78 -57 -154z" />
    <glyph glyph-name="uniE63B" unicode="&#xe63b;" 
d="M512 832q-73 0 -141.5 -23t-123.5 -64t-96 -96t-64 -123.5t-23 -141.5q0 -91 35.5 -174t95.5 -143t143 -95.5t174 -35.5t174 35.5t143 95.5t95.5 143t35.5 174q0 61 -16.5 119t-45 107t-70 90.5t-90.5 70t-107 45t-119 16.5zM512 659q49 0 83.5 -34.5t34.5 -83.5
t-34.5 -83.5t-83.5 -34.5t-83.5 34.5t-34.5 83.5q0 24 9.5 45.5t25 37.5t37.5 25.5t46 9.5zM221 123q19 118 101 196t190 78q57 0 108 -23t92 -65q73 -76 91 -186h-582z" />
    <glyph glyph-name="uniE640" unicode="&#xe640;" 
d="M551 787l-50 -331q0 -2 0.5 -4t1.5 -3q3 -3 6 -3h1l256 7l-292 -482l49 326q0 2 -0.5 3.5t-1.5 2.5q-3 3 -6 3h-257zM565 826zM565 826l-321 -528h271l-56 -366l321 530l-271 -8z" />
    <glyph glyph-name="uniE641" unicode="&#xe641;" 
d="M565 826zM565 826l-321 -528h271l-56 -366l321 530l-271 -8z" />
    <glyph glyph-name="uniE644" unicode="&#xe644;" 
d="M565 826zM61 732h897v-224h-897v224zM61 253h897v-224h-897v224z" />
    <glyph glyph-name="uniE645" unicode="&#xe645;" 
d="M565 826zM62 491v-224h336v-336h224v336h336v224h-336v336h-224v-336h-336z" />
    <glyph glyph-name="uniE65F" unicode="&#xe65f;" 
d="M512 894q-104 0 -198 -40.5t-162.5 -109t-109 -162.5t-40.5 -198q0 -83 26 -161t73 -140.5t109.5 -109.5t140.5 -73t161 -26q104 0 198 40.5t162.5 109t109 162.5t40.5 198q0 83 -26 161t-73 140.5t-109.5 109.5t-140.5 73t-161 26zM512 -88q-96 0 -183.5 37.5
t-150.5 100.5t-100.5 150.5t-37.5 183.5q0 77 24 149t67.5 130t101.5 101.5t130 67.5t149 24q43 0 85 -7.5t80 -22t73 -35t66 -46.5t57 -57t46.5 -66t35 -73t22 -80t7.5 -85q0 -77 -24 -149t-67.5 -130t-101.5 -101.5t-130 -67.5t-149 -24zM271 170l455 454l26 -26
l-454 -454zM298 625l454 -455l-26 -26l-454 454z" />
    <glyph glyph-name="uniE67A" unicode="&#xe67a;" 
d="M511 571q-77 0 -131.5 -54.5t-54.5 -131.5t54.5 -131.5t131.5 -54.5q50 0 93 25t68 68t25 93q0 38 -15 72t-39.5 59t-59 40t-72.5 15zM510.5 278q-43.5 0 -75 31t-31.5 75t31.5 75t75 31t75 -31t31.5 -75t-31.5 -75t-75 -31zM948 431v1h-21q-16 145 -120.5 249
t-248.5 120v95h-93v-55h-1v-40q-95 -11 -175.5 -62t-131.5 -131.5t-62 -175.5h-24v-1h-71v-93h95q16 -144 120.5 -248.5t248.5 -120.5v-26h1v-69h93v95q144 16 248.5 120.5t120.5 248.5h95v93h-74zM556 63v46h-92v-46q-106 16 -183 93t-92 184h48v92h-48q16 106 92.5 182.5
t182.5 92.5v-32h92v32q35 -5 68.5 -17.5t62 -31t53.5 -43t43.5 -53t31.5 -62t18 -68.5h-51v-92h51q-15 -107 -92 -184.5t-185 -92.5z" />
  </font>
</defs>
</svg>
